{"title":"Cabin Fever Patient Zero 2014 BRRip 720p x264 AAC - PRiSTiNE [P2","uid":9623212,"size":602433990,"categoryP":"video","categoryS":"hd___movies","magnet":"?xt=urn:btih:790b0773b4f4277dc768d0975b6f1d22923a6a4a&amp;dn=Cabin+Fever+Patient+Zero+2014+BRRip+720p+x264+AAC+-+PRiSTiNE+%5BP2&amp;tr=udp%3A%2F%2Ftracker.openbittorrent.com%3A80&amp;tr=udp%3A%2F%2Fopen.demonii.com%3A1337&amp;tr=udp%3A%2F%2Ftracker.coppersurfer.tk%3A6969&amp;tr=udp%3A%2F%2Fexodus.desync.com%3A6969","seeders":2,"leechers":2,"uploader":"ValidusVyto","files":-1,"time":1392548928,"description":"Cabin.Fever.Patient.Zero.2014.BRRip.720p.x264.AAC-PRiSTiNE\n\n\nGenre: Horror &lt;a href=&quot;\nhttp://www.imdb.com/title/tt2102496/&quot; rel=&quot;nofollow&quot; target=&quot;_NEW&quot;&gt;\nhttp://www.imdb.com/title/tt2102496/&lt;/a&gt;\n\n\nFormat                                   : MPEG-4\nFile size                                : 560 MiB\nDuration                                 : 1h 34mn\nOverall bit rate mode                    : Variable\nOverall bit rate                         : 825 Kbps\n\nVideo\nFormat                                   : AVC\nBit rate                                 : 740 Kbps\nWidth                                    : 1 280 pixels\nHeight                                   : 528 pixels\nDisplay aspect ratio                     : 2.40:1\nOriginal display aspect ratio            : 2.40:1\nFrame rate mode                          : Variable\nFrame rate                               : 23.976 fps\nBit depth                                : 8 bits\nStream size                              : 502 MiB (90%)\nWriting library                          : x264 core 140 r2377\n\nAudio\nFormat                                   : AAC\nBit rate                                 : 80.0 Kbps\nChannel(s)                               : 2 channels\nChannel positions                        : Front: L R\nSampling rate                            : 48.0 KHz\nStream size                              : 54.3 MiB (10%)\nLanguage                                 : English\n &lt;a href=&quot;\nhttp://someimage.com/63boyEb&quot; rel=&quot;nofollow&quot; target=&quot;_NEW&quot;&gt;\nhttp://someimage.com/63boyEb&lt;/a&gt; &lt;a href=&quot;\nhttp://someimage.com/3DedTdm&quot; rel=&quot;nofollow&quot; target=&quot;_NEW&quot;&gt;\nhttp://someimage.com/3DedTdm&lt;/a&gt; &lt;a href=&quot;\nhttp://someimage.com/w0fswN7&quot; rel=&quot;nofollow&quot; target=&quot;_NEW&quot;&gt;\nhttp://someimage.com/w0fswN7&lt;/a&gt; &lt;a href=&quot;\nhttp://someimage.com/r1NymYP&quot; rel=&quot;nofollow&quot; target=&quot;_NEW&quot;&gt;\nhttp://someimage.com/r1NymYP&lt;/a&gt; &lt;a href=&quot;\nhttp://someimage.com/xQKaIaW&quot; rel=&quot;nofollow&quot; target=&quot;_NEW&quot;&gt;\nhttp://someimage.com/xQKaIaW&lt;/a&gt; &lt;a href=&quot;\nhttp://someimage.com/oQABDTb&quot; rel=&quot;nofollow&quot; target=&quot;_NEW&quot;&gt;\nhttp://someimage.com/oQABDTb&lt;/a&gt;\n\n\n----------------------------------------------------------------------------------------------------\n\n\nRecommend to you to use latest version of VLC player. Install K-Lite Codec Pack or shark007 codecs\nin case of any kind of problem in playback (For non-VLC Media Player users). Alternatively, install\nCore AVC codecs, the fastest decoder that there is coupled with Community Center Codec Pack and play\non Windows Media Player Classic. Check sample to be sure.\nEnjoy!\n\nEncoder Notes:Looking For Early Access To Anything You Can Provide DVDScr, R5, DVDR, BluRay, Direct\nAudio, Music Releases and Seedboxes. We require dedicated servers, so as to do more \nand fast releases of movies.","torrent":{"xt":"urn:btih:790b0773b4f4277dc768d0975b6f1d22923a6a4a","amp;dn":"Cabin+Fever+Patient+Zero+2014+BRRip+720p+x264+AAC+-+PRiSTiNE+%5BP2","amp;tr":["udp%3A%2F%2Ftracker.openbittorrent.com%3A80","udp%3A%2F%2Fopen.demonii.com%3A1337","udp%3A%2F%2Ftracker.coppersurfer.tk%3A6969","udp%3A%2F%2Fexodus.desync.com%3A6969"],"infoHash":"790b0773b4f4277dc768d0975b6f1d22923a6a4a","infoHashBuffer":{"type":"Buffer","data":[121,11,7,115,180,244,39,125,199,104,208,151,91,111,29,34,146,58,106,74]},"announce":[],"urlList":[]}}